<svg xmlns="http://www.w3.org/2000/svg" viewBox="0 0 400 400"><defs><linearGradient id="g" x2="1" y2="1"><stop stop-color="#ff6a00" stop-opacity=".34"/><stop offset="1" stop-color="#061019" stop-opacity=".04"/></linearGradient></defs><rect width="400" height="400" fill="#061019"/><g stroke="#ff6a00" stroke-opacity=".18" fill="none"><path d="M0 60H400M0 120H400M0 180H400M0 240H400M0 300H400M0 360H400M60 0V400M120 0V400M180 0V400M240 0V400M300 0V400M360 0V400"/></g><rect x="44" y="76" width="312" height="220" rx="8" fill="#07121b" stroke="#ff6a00" stroke-opacity=".45"/><path d="M64 252L100 218 134 231 170 176 206 196 246 144 276 164 326 112" fill="none" stroke="#ff6a00" stroke-width="5"/><path d="M64 252L100 218 134 231 170 176 206 196 246 144 276 164 326 112V270H64Z" fill="url(#g)"/><g fill="#ff6a00"><circle cx="100" cy="218" r="5"/><circle cx="170" cy="176" r="5"/><circle cx="246" cy="144" r="5"/><circle cx="326" cy="112" r="5"/></g><g stroke="#e9f0f3" stroke-opacity=".24"><path d="M62 98H166M62 112H130M62 282H335"/></g><circle cx="300" cy="326" r="25" fill="none" stroke="#ff6a00" stroke-width="5" stroke-dasharray="120 40"/><circle cx="300" cy="326" r="14" fill="#ff6a00" fill-opacity=".16"/></svg>